{
    "asset" : {
        "generator" : "Khronos glTF Blender I/O v1.3.48",
        "version" : "2.0"
    },
    "scene" : 0,
    "scenes" : [
        {
            "name" : "Scene",
            "nodes" : [
                1,
                2
            ]
        }
    ],
    "nodes" : [
        {
            "mesh" : 0,
            "name" : "Mesh_Mesh_head_geo.001_lambert2SG.001",
            "translation" : [
                0.4842849671840668,
                9.797117233276367,
                0.34216636419296265
            ]
        },
        {
            "children" : [
                0
            ],
            "name" : "Node_1",
            "rotation" : [
                -0.7071068286895752,
                0,
                0,
                0.7071068286895752
            ]
        },
        {
            "mesh" : 1,
            "name" : "Cube",
            "scale" : [
                8.81235408782959,
                8.81235408782959,
                8.81235408782959
            ],
            "translation" : [
                0.0007998347282409668,
                193.92811584472656,
                0.0058163851499557495
            ]
        }
    ],
    "materials" : [
        {
            "emissiveFactor" : [
                0,
                0,
                0
            ],
            "name" : "lambert2SG.001",
            "pbrMetallicRoughness" : {
                "metallicFactor" : 0.5,
                "roughnessFactor" : 0.5
            }
        },
        {
            "doubleSided" : true,
            "name" : "Material.001",
            "pbrMetallicRoughness" : {}
        }
    ],
    "meshes" : [
        {
            "name" : "Mesh_0",
            "primitives" : [
                {
                    "attributes" : {
                        "POSITION" : 0,
                        "NORMAL" : 1,
                        "COLOR_0" : 2
                    },
                    "indices" : 3,
                    "material" : 0
                }
            ]
        },
        {
            "name" : "Cube.001",
            "primitives" : [
                {
                    "attributes" : {
                        "POSITION" : 4,
                        "NORMAL" : 5,
                        "TEXCOORD_0" : 6
                    },
                    "indices" : 7,
                    "material" : 1
                }
            ]
        }
    ],
    "accessors" : [
        {
            "bufferView" : 0,
            "componentType" : 5126,
            "count" : 99396,
            "max" : [
                335,
                310,
                147
            ],
            "min" : [
                -309,
                -286,
                -147
            ],
            "type" : "VEC3"
        },
        {
            "bufferView" : 1,
            "componentType" : 5126,
            "count" : 99396,
            "type" : "VEC3"
        },
        {
            "bufferView" : 2,
            "componentType" : 5126,
            "count" : 99396,
            "type" : "VEC4"
        },
        {
            "bufferView" : 3,
            "componentType" : 5125,
            "count" : 99396,
            "type" : "SCALAR"
        },
        {
            "bufferView" : 4,
            "componentType" : 5126,
            "count" : 24,
            "max" : [
                1,
                1,
                1
            ],
            "min" : [
                -1,
                -1,
                -1
            ],
            "type" : "VEC3"
        },
        {
            "bufferView" : 5,
            "componentType" : 5126,
            "count" : 24,
            "type" : "VEC3"
        },
        {
            "bufferView" : 6,
            "componentType" : 5126,
            "count" : 24,
            "type" : "VEC2"
        },
        {
            "bufferView" : 7,
            "componentType" : 5123,
            "count" : 36,
            "type" : "SCALAR"
        }
    ],
    "bufferViews" : [
        {
            "buffer" : 0,
            "byteLength" : 1192752,
            "byteOffset" : 0
        },
        {
            "buffer" : 0,
            "byteLength" : 1192752,
            "byteOffset" : 1192752
        },
        {
            "buffer" : 0,
            "byteLength" : 1590336,
            "byteOffset" : 2385504
        },
        {
            "buffer" : 0,
            "byteLength" : 397584,
            "byteOffset" : 3975840
        },
        {
            "buffer" : 0,
            "byteLength" : 288,
            "byteOffset" : 4373424
        },
        {
            "buffer" : 0,
            "byteLength" : 288,
            "byteOffset" : 4373712
        },
        {
            "buffer" : 0,
            "byteLength" : 192,
            "byteOffset" : 4374000
        },
        {
            "buffer" : 0,
            "byteLength" : 72,
            "byteOffset" : 4374192
        }
    ],
    "buffers" : [
        {
            "byteLength" : 4374264,
            "uri" : "city1.bin"
        }
    ]
}
